AdventPro-reg_it.ufo
<glyph name="quotedbl" format="1">
  <advance width="267" height="962"/>
  <unicode hex="0022"/>
  <outline>
    <contour>
      <point x="316" y="703" type="line"/>
      <point x="326" y="750"/>
      <point x="394" y="750"/>
      <point x="384" y="703" type="curve"/>
      <point x="346" y="588" type="line"/>
      <point x="306" y="588" type="line"/>
    </contour>
    <contour>
      <point x="181" y="703" type="line"/>
      <point x="191" y="750"/>
      <point x="259" y="750"/>
      <point x="249" y="703" type="curve"/>
      <point x="209" y="588" type="line"/>
      <point x="170" y="588" type="line"/>
    </contour>
  </outline>
</glyph>
<glyph name="numbersign" format="2">
  <advance width="611"/>
  <unicode hex="0023"/>
  <outline>
    <contour>
      <point x="444" y="244" type="line"/>
      <point x="631" y="244" type="line"/>
      <point x="619" y="190" type="line"/>
      <point x="419" y="190" type="line"/>
      <point x="335" y="0" type="line"/>
      <point x="280" y="0" type="line"/>
      <point x="364" y="190" type="line"/>
      <point x="246" y="190" type="line"/>
      <point x="162" y="0" type="line"/>
      <point x="107" y="0" type="line"/>
      <point x="191" y="190" type="line"/>
      <point x="70" y="190" type="line"/>
      <point x="82" y="244" type="line"/>
      <point x="215" y="244" type="line"/>
      <point x="291" y="414" type="line"/>
      <point x="119" y="414" type="line"/>
      <point x="130" y="471" type="line"/>
      <point x="317" y="471" type="line"/>
      <point x="419" y="700" type="line"/>
      <point x="474" y="700" type="line"/>
      <point x="372" y="471" type="line"/>
      <point x="490" y="471" type="line"/>
      <point x="593" y="700" type="line"/>
      <point x="648" y="700" type="line"/>
      <point x="544" y="471" type="line"/>
      <point x="679" y="471" type="line"/>
      <point x="667" y="414" type="line"/>
      <point x="521" y="414" type="line"/>
    </contour>
    <contour>
      <point x="390" y="244" type="line"/>
      <point x="466" y="414" type="line"/>
      <point x="346" y="414" type="line"/>
      <point x="271" y="244" type="line"/>
    </contour>
  </outline>
</glyph>
<glyph name="percent" format="2">
  <advance width="713" height="962"/>
  <unicode hex="0025"/>
  <outline>
    <contour>
      <point x="44" y="0" type="line"/>
      <point x="732" y="700" type="line"/>
      <point x="803" y="700" type="line"/>
      <point x="119" y="0" type="line"/>
    </contour>
    <contour>
      <point x="328" y="714" type="curve" smooth="yes"/>
      <point x="408" y="714"/>
      <point x="459" y="650"/>
      <point x="442" y="568" type="curve" smooth="yes"/>
      <point x="425" y="488"/>
      <point x="346" y="422"/>
      <point x="265" y="422" type="curve" smooth="yes"/>
      <point x="184" y="422"/>
      <point x="133" y="488"/>
      <point x="150" y="568" type="curve" smooth="yes"/>
      <point x="167" y="650"/>
      <point x="246" y="714"/>
    </contour>
    <contour>
      <point x="320" y="663" type="curve" smooth="yes"/>
      <point x="268" y="663"/>
      <point x="215.104" y="618.977"/>
      <point x="204" y="568" type="curve" smooth="yes"/>
      <point x="193.104" y="517.977"/>
      <point x="220" y="474"/>
      <point x="273" y="474" type="curve" smooth="yes"/>
      <point x="323" y="474"/>
      <point x="377.104" y="517.977"/>
      <point x="388" y="568" type="curve" smooth="yes"/>
      <point x="399.104" y="618.977"/>
      <point x="371" y="663"/>
    </contour>
    <contour>
      <point x="594" y="277" type="curve" smooth="yes"/>
      <point x="676" y="277"/>
      <point x="726" y="212"/>
      <point x="709" y="132" type="curve" smooth="yes"/>
      <point x="692" y="51"/>
      <point x="614" y="-14"/>
      <point x="533" y="-14" type="curve" smooth="yes"/>
      <point x="454" y="-14"/>
      <point x="402" y="51"/>
      <point x="419" y="132" type="curve" smooth="yes"/>
      <point x="436" y="212"/>
      <point x="516" y="277"/>
    </contour>
    <contour>
      <point x="588" y="227" type="curve" smooth="yes"/>
      <point x="537" y="227"/>
      <point x="485.581" y="185.878"/>
      <point x="474" y="132" type="curve" smooth="yes"/>
      <point x="462.58" y="78.872"/>
      <point x="490" y="37"/>
      <point x="541" y="37" type="curve" smooth="yes"/>
      <point x="594" y="37"/>
      <point x="644.625" y="79.0793"/>
      <point x="656" y="132" type="curve" smooth="yes"/>
      <point x="667.625" y="186.082"/>
      <point x="642" y="227"/>
    </contour>
  </outline>
</glyph>
<glyph name="ampersand" format="1">
  <advance width="529" height="962"/>
  <unicode hex="0026"/>
  <outline>
    <contour>
      <point x="518" y="653" type="line"/>
      <point x="381" y="653" type="line" smooth="yes"/>
      <point x="324" y="653"/>
      <point x="281" y="609"/>
      <point x="268" y="545" type="curve" smooth="yes"/>
      <point x="252" y="465"/>
      <point x="302" y="403"/>
      <point x="382" y="403" type="curve" smooth="yes"/>
      <point x="432" y="403" type="line"/>
      <point x="454" y="507" type="line"/>
      <point x="507" y="507" type="line"/>
      <point x="485" y="404" type="line"/>
      <point x="584" y="404" type="line"/>
      <point x="550" y="350" type="line"/>
      <point x="474" y="350" type="line"/>
      <point x="428" y="137" type="line" smooth="yes"/>
      <point x="417" y="84"/>
      <point x="434" y="50"/>
      <point x="475" y="34" type="curve"/>
      <point x="453" y="-9" type="line"/>
      <point x="410" y="5"/>
      <point x="383" y="26"/>
      <point x="376" y="62" type="curve"/>
      <point x="326" y="14"/>
      <point x="251" y="-6"/>
      <point x="206" y="-6" type="curve" smooth="yes"/>
      <point x="102" y="-6"/>
      <point x="40" y="47"/>
      <point x="64" y="160" type="curve" smooth="yes"/>
      <point x="84" y="255" type="line" smooth="yes"/>
      <point x="106" y="358"/>
      <point x="167" y="403"/>
      <point x="240" y="403" type="curve" smooth="yes"/>
      <point x="259" y="403" type="line"/>
      <point x="207" y="443"/>
      <point x="206" y="506"/>
      <point x="213" y="548" type="curve" smooth="yes"/>
      <point x="228" y="639"/>
      <point x="295" y="704"/>
      <point x="388" y="704" type="curve" smooth="yes"/>
      <point x="554" y="704" type="line"/>
    </contour>
    <contour>
      <point x="420" y="350" type="line"/>
      <point x="259" y="350" type="line" smooth="yes"/>
      <point x="223" y="350"/>
      <point x="160" y="344"/>
      <point x="140" y="252" type="curve" smooth="yes"/>
      <point x="122" y="165" type="line" smooth="yes"/>
      <point x="105" y="87"/>
      <point x="142" y="42"/>
      <point x="229" y="50" type="curve" smooth="yes"/>
      <point x="313" y="58"/>
      <point x="369" y="107"/>
      <point x="384" y="177" type="curve" smooth="yes"/>
    </contour>
  </outline>
</glyph>
<glyph name="parenleft" format="1">
  <advance width="182" height="962"/>
  <unicode hex="0028"/>
  <outline>
    <contour>
      <point x="331" y="780" type="line"/>
      <point x="278" y="748"/>
      <point x="246" y="698"/>
      <point x="233" y="637" type="curve" smooth="yes"/>
      <point x="192" y="444"/>
      <point x="152" y="255"/>
      <point x="111" y="62" type="curve" smooth="yes"/>
      <point x="98" y="-1"/>
      <point x="109" y="-49"/>
      <point x="148" y="-81" type="curve"/>
      <point x="121" y="-120" type="line"/>
      <point x="78" y="-82"/>
      <point x="29" y="-58"/>
      <point x="56" y="70" type="curve" smooth="yes"/>
      <point x="175" y="627" type="line" smooth="yes"/>
      <point x="196" y="728"/>
      <point x="241" y="779"/>
      <point x="320" y="818" type="curve"/>
    </contour>
  </outline>
</glyph>
<glyph name="parenright" format="2">
  <advance width="182"/>
  <unicode hex="0029"/>
  <outline>
    <contour>
      <point x="210" y="818" type="line"/>
      <point x="272" y="779"/>
      <point x="295" y="728"/>
      <point x="274" y="627" type="curve" smooth="yes"/>
      <point x="156" y="70" type="line" smooth="yes"/>
      <point x="128" y="-58"/>
      <point x="70" y="-81"/>
      <point x="11" y="-120" type="curve"/>
      <point x="0" y="-81" type="line"/>
      <point x="52" y="-49"/>
      <point x="84.6052" y="-1.1314"/>
      <point x="98" y="62" type="curve" smooth="yes"/>
      <point x="220" y="637" type="line" smooth="yes"/>
      <point x="232.945" y="698.012"/>
      <point x="222" y="748"/>
      <point x="183" y="780" type="curve"/>
    </contour>
  </outline>
</glyph>
<glyph name="asterisk" format="2">
  <advance width="353"/>
  <unicode hex="002A"/>
  <outline>
    <contour>
      <point x="175" y="627" type="line"/>
      <point x="271" y="587" type="line"/>
      <point x="295" y="700" type="line"/>
      <point x="349" y="700" type="line"/>
      <point x="325" y="587" type="line"/>
      <point x="440" y="627" type="line"/>
      <point x="451" y="579" type="line"/>
      <point x="334" y="541" type="line"/>
      <point x="381" y="451" type="line"/>
      <point x="333" y="419" type="line"/>
      <point x="285" y="516" type="line"/>
      <point x="199" y="419" type="line"/>
      <point x="160" y="451" type="line"/>
      <point x="244" y="541" type="line"/>
      <point x="146" y="579" type="line"/>
    </contour>
  </outline>
</glyph>
<glyph name="comma" format="2">
  <advance width="267"/>
  <unicode hex="002C"/>
  <outline>
    <contour>
      <point x="80" y="-85" type="line"/>
      <point x="108" y="-59"/>
      <point x="120" y="-32"/>
      <point x="128" y="-10" type="curve"/>
      <point x="112" y="-8"/>
      <point x="103" y="7"/>
      <point x="107" y="23" type="curve" smooth="yes"/>
      <point x="111" y="42"/>
      <point x="128" y="56"/>
      <point x="147" y="56" type="curve" smooth="yes"/>
      <point x="165" y="56"/>
      <point x="177" y="43"/>
      <point x="174" y="23" type="curve"/>
      <point x="160" y="-40"/>
      <point x="118" y="-80"/>
      <point x="95" y="-98" type="curve"/>
    </contour>
  </outline>
</glyph>
<glyph name="hyphen" format="1">
  <advance width="392" height="962"/>
  <unicode hex="002D"/>
  <outline>
    <contour>
      <point x="109.781" y="355.994" type="line"/>
      <point x="122.147" y="414.156" type="line"/>
      <point x="442.04" y="414.156" type="line"/>
      <point x="429.674" y="355.994" type="line"/>
    </contour>
  </outline>
</glyph>
<glyph name="zero" format="2">
  <advance width="492" height="962"/>
  <unicode hex="0030"/>
  <outline>
    <contour>
      <point x="142" y="508" type="line" smooth="yes"/>
      <point x="170" y="644"/>
      <point x="263" y="716"/>
      <point x="395" y="716" type="curve" smooth="yes"/>
      <point x="528" y="716"/>
      <point x="591" y="638"/>
      <point x="563" y="507" type="curve" smooth="yes"/>
      <point x="495" y="186" type="line" smooth="yes"/>
      <point x="469" y="65"/>
      <point x="367" y="-11"/>
      <point x="243" y="-11" type="curve" smooth="yes"/>
      <point x="127" y="-11"/>
      <point x="49" y="61"/>
      <point x="76" y="191" type="curve" smooth="yes"/>
    </contour>
    <contour>
      <point x="130" y="187" type="line" smooth="yes"/>
      <point x="110" y="91"/>
      <point x="160" y="42"/>
      <point x="248" y="42" type="curve" smooth="yes"/>
      <point x="340" y="42"/>
      <point x="419" y="93"/>
      <point x="440" y="192" type="curve" smooth="yes"/>
      <point x="510" y="517" type="line" smooth="yes"/>
      <point x="531" y="614"/>
      <point x="480" y="663"/>
      <point x="385" y="663" type="curve" smooth="yes"/>
      <point x="293" y="663"/>
      <point x="221" y="614"/>
      <point x="200" y="517" type="curve" smooth="yes"/>
    </contour>
  </outline>
</glyph>
<glyph name="five" format="2">
  <advance width="440"/>
  <unicode hex="0035"/>
  <outline>
    <contour>
      <point x="204" y="412" type="line"/>
      <point x="257" y="412" type="line" smooth="yes"/>
      <point x="389" y="412"/>
      <point x="486" y="345"/>
      <point x="455" y="199" type="curve" smooth="yes"/>
      <point x="433" y="97"/>
      <point x="333" y="-12"/>
      <point x="199" y="-12" type="curve" smooth="yes"/>
      <point x="111" y="-12"/>
      <point x="37" y="44"/>
      <point x="37" y="42" type="curve"/>
      <point x="68" y="89" type="line"/>
      <point x="68" y="91"/>
      <point x="120" y="44"/>
      <point x="208" y="44" type="curve" smooth="yes"/>
      <point x="288" y="44"/>
      <point x="379" y="106"/>
      <point x="399" y="201" type="curve" smooth="yes"/>
      <point x="417" y="289"/>
      <point x="367" y="356"/>
      <point x="245" y="356" type="curve" smooth="yes"/>
      <point x="130" y="356" type="line"/>
      <point x="240" y="700" type="line"/>
      <point x="506" y="700" type="line"/>
      <point x="494" y="643" type="line"/>
      <point x="277" y="643" type="line"/>
    </contour>
  </outline>
</glyph>
<glyph name="nine" format="2">
  <advance width="482"/>
  <unicode hex="0039"/>
  <outline>
    <contour>
      <point x="387" y="709" type="curve" smooth="yes"/>
      <point x="508" y="709"/>
      <point x="580" y="614"/>
      <point x="554" y="497" type="curve" smooth="yes"/>
      <point x="499" y="239" type="line" smooth="yes"/>
      <point x="471" y="98"/>
      <point x="349" y="-1"/>
      <point x="205" y="-1" type="curve" smooth="yes"/>
      <point x="170" y="-1" type="line"/>
      <point x="181" y="54" type="line"/>
      <point x="219" y="54" type="line" smooth="yes"/>
      <point x="335" y="54"/>
      <point x="422" y="135"/>
      <point x="445" y="246" type="curve" smooth="yes"/>
      <point x="469" y="353" type="line"/>
      <point x="416" y="309"/>
      <point x="361" y="285"/>
      <point x="300" y="285" type="curve" smooth="yes"/>
      <point x="178" y="285"/>
      <point x="103" y="377"/>
      <point x="129" y="497" type="curve" smooth="yes"/>
      <point x="155" y="615"/>
      <point x="265" y="709"/>
    </contour>
    <contour>
      <point x="375" y="654" type="curve" smooth="yes"/>
      <point x="289" y="654"/>
      <point x="204" y="584"/>
      <point x="185" y="497" type="curve" smooth="yes"/>
      <point x="167" y="410"/>
      <point x="222" y="340"/>
      <point x="308" y="340" type="curve" smooth="yes"/>
      <point x="396" y="340"/>
      <point x="481" y="410"/>
      <point x="499" y="497" type="curve" smooth="yes"/>
      <point x="518" y="584"/>
      <point x="463" y="654"/>
    </contour>
  </outline>
</glyph>
<glyph name="colon" format="1">
  <advance width="144" height="962"/>
  <unicode hex="003A"/>
  <outline>
    <contour>
      <point x="134" y="144" type="curve" smooth="yes"/>
      <point x="130" y="125"/>
      <point x="111" y="111"/>
      <point x="94" y="111" type="curve" smooth="yes"/>
      <point x="75" y="111"/>
      <point x="63" y="125"/>
      <point x="67" y="144" type="curve" smooth="yes"/>
      <point x="71" y="162"/>
      <point x="89" y="177"/>
      <point x="108" y="177" type="curve" smooth="yes"/>
      <point x="125" y="177"/>
      <point x="138" y="162"/>
    </contour>
    <contour>
      <point x="185" y="385" type="curve" smooth="yes"/>
      <point x="181" y="367"/>
      <point x="163" y="352"/>
      <point x="145" y="352" type="curve" smooth="yes"/>
      <point x="127" y="352"/>
      <point x="114" y="367"/>
      <point x="118" y="385" type="curve" smooth="yes"/>
      <point x="122" y="404"/>
      <point x="141" y="418"/>
      <point x="159" y="418" type="curve" smooth="yes"/>
      <point x="177" y="418"/>
      <point x="189" y="404"/>
    </contour>
  </outline>
</glyph>
<glyph name="less" format="2">
  <advance width="375"/>
  <unicode hex="003C"/>
  <outline>
    <contour>
      <point x="102" y="359" type="line"/>
      <point x="438" y="637" type="line"/>
      <point x="470" y="599" type="line"/>
      <point x="177" y="357" type="line"/>
      <point x="367" y="119" type="line"/>
      <point x="320" y="79" type="line"/>
    </contour>
  </outline>
</glyph>
<glyph name="greater" format="1">
  <advance width="375" height="962"/>
  <unicode hex="003E"/>
  <outline>
    <contour>
      <point x="158" y="599" type="line"/>
      <point x="204" y="637" type="line"/>
      <point x="422" y="359" type="line"/>
      <point x="85" y="79" type="line"/>
      <point x="55" y="119" type="line"/>
      <point x="346" y="357" type="line"/>
    </contour>
  </outline>
</glyph>
<glyph name="K" format="1">
  <advance width="459" height="962"/>
  <unicode hex="004B"/>
  <outline>
    <contour>
      <point x="177.008" y="375.047" type="line"/>
      <point x="465.698" y="699.954" type="line"/>
      <point x="534.892" y="699.954" type="line"/>
      <point x="266.147" y="398.112" type="line"/>
      <point x="438.224" y="0" type="line"/>
      <point x="375.047" y="0" type="line"/>
      <point x="223.034" y="350.98" type="line"/>
      <point x="154.409" y="268.75" type="line"/>
      <point x="97.2716" y="0" type="line"/>
      <point x="41.1148" y="0" type="line"/>
      <point x="189.928" y="699.954" type="line"/>
      <point x="246.085" y="699.954" type="line"/>
    </contour>
  </outline>
</glyph>
<glyph name="L" format="2">
  <advance width="424"/>
  <unicode hex="004C"/>
  <outline>
    <contour>
      <point x="41.1148" y="0" type="line"/>
      <point x="189.928" y="699.954" type="line"/>
      <point x="246.085" y="699.954" type="line"/>
      <point x="107.932" y="50.14" type="line"/>
      <point x="412.783" y="50.14" type="line"/>
      <point x="402.123" y="0" type="line"/>
    </contour>
  </outline>
</glyph>
<glyph name="S" format="1">
  <advance width="530" height="962"/>
  <unicode hex="0053"/>
  <outline>
    <contour>
      <point x="555.579" y="622.739" type="line"/>
      <point x="519.154" y="644.8"/>
      <point x="471.146" y="654.828"/>
      <point x="424.015" y="654.828" type="curve" smooth="yes"/>
      <point x="356.827" y="654.828"/>
      <point x="253.286" y="634.772"/>
      <point x="234.951" y="548.532" type="curve" smooth="yes"/>
      <point x="195.509" y="363.014"/>
      <point x="590.857" y="430.201"/>
      <point x="537.557" y="179.501" type="curve" smooth="yes"/>
      <point x="509.202" y="46.1288"/>
      <point x="378.506" y="-12.0336"/>
      <point x="260.175" y="-12.0336" type="curve" smooth="yes"/>
      <point x="166.915" y="-12.0336"/>
      <point x="90.718" y="21.0588"/>
      <point x="44.6844" y="92.2576" type="curve"/>
      <point x="87.2444" y="127.356" type="line"/>
      <point x="117.423" y="71.1988"/>
      <point x="199.486" y="42.1176"/>
      <point x="267.677" y="42.1176" type="curve" smooth="yes"/>
      <point x="361.94" y="42.1176"/>
      <point x="456.496" y="81.2268"/>
      <point x="479.095" y="187.524" type="curve" smooth="yes"/>
      <point x="518.11" y="371.036"/>
      <point x="127.816" y="322.902"/>
      <point x="175.786" y="548.532" type="curve" smooth="yes"/>
      <point x="202.009" y="671.876"/>
      <point x="332.239" y="708.98"/>
      <point x="434.525" y="708.98" type="curve" smooth="yes"/>
      <point x="487.673" y="708.98"/>
      <point x="538.263" y="696.946"/>
      <point x="580.065" y="671.876" type="curve"/>
    </contour>
  </outline>
</glyph>
<glyph name="T" format="2">
  <advance width="417"/>
  <unicode hex="0054"/>
  <outline>
    <contour>
      <point x="370.803" y="649.814" type="line"/>
      <point x="232.65" y="0" type="line"/>
      <point x="177.496" y="0" type="line"/>
      <point x="315.649" y="649.814" type="line"/>
      <point x="145.173" y="649.814" type="line"/>
      <point x="155.833" y="699.954" type="line"/>
      <point x="557.956" y="699.954" type="line"/>
      <point x="547.296" y="649.814" type="line"/>
    </contour>
  </outline>
</glyph>
<glyph name="V" format="2">
  <advance width="511"/>
  <unicode hex="0056"/>
  <outline>
    <contour>
      <point x="164" y="700" type="line"/>
      <point x="224" y="700" type="line"/>
      <point x="268" y="69" type="line"/>
      <point x="582" y="700" type="line"/>
      <point x="642" y="700" type="line"/>
      <point x="293" y="0" type="line"/>
      <point x="216" y="0" type="line"/>
    </contour>
  </outline>
</glyph>
<glyph name="W" format="1">
  <advance width="733" height="962"/>
  <unicode hex="0057"/>
  <outline>
    <contour>
      <point x="536" y="700" type="line"/>
      <point x="536" y="93" type="line"/>
      <point x="802" y="700" type="line"/>
      <point x="862" y="700" type="line"/>
      <point x="550" y="0" type="line"/>
      <point x="480" y="0" type="line"/>
      <point x="480" y="576" type="line"/>
      <point x="258" y="0" type="line"/>
      <point x="175" y="0" type="line"/>
      <point x="175" y="700" type="line"/>
      <point x="231" y="700" type="line"/>
      <point x="231" y="69" type="line"/>
      <point x="466" y="700" type="line"/>
    </contour>
  </outline>
</glyph>
<glyph name="Z" format="1">
  <advance width="547" height="962"/>
  <unicode hex="005A"/>
  <outline>
    <contour>
      <point x="660" y="700" type="line"/>
      <point x="649" y="650" type="line"/>
      <point x="111" y="51" type="line"/>
      <point x="527" y="51" type="line"/>
      <point x="516" y="0" type="line"/>
      <point x="29" y="0" type="line"/>
      <point x="40" y="50" type="line"/>
      <point x="576" y="649" type="line"/>
      <point x="179" y="649" type="line"/>
      <point x="190" y="700" type="line"/>
    </contour>
  </outline>
</glyph>
<glyph name="bracketleft" format="1">
  <advance width="223" height="962"/>
  <unicode hex="005B"/>
  <outline>
    <contour>
      <point x="260" y="762" type="line"/>
      <point x="86" y="-59" type="line"/>
      <point x="189" y="-69" type="line"/>
      <point x="180" y="-114" type="line"/>
      <point x="18" y="-114" type="line"/>
      <point x="216" y="818" type="line"/>
      <point x="377" y="818" type="line"/>
      <point x="368" y="772" type="line"/>
    </contour>
  </outline>
</glyph>
<glyph name="grave" format="1">
  <advance width="267" height="962"/>
  <unicode hex="0060"/>
  <outline>
    <contour>
      <point x="267" y="711" type="curve" smooth="yes"/>
      <point x="282" y="610" type="line"/>
      <point x="246" y="610" type="line"/>
      <point x="210" y="689" type="line" smooth="yes"/>
      <point x="203" y="705"/>
      <point x="206" y="730"/>
      <point x="226" y="737" type="curve" smooth="yes"/>
      <point x="247" y="744"/>
      <point x="264" y="730"/>
    </contour>
  </outline>
</glyph>
<glyph name="e" format="2">
  <advance width="422" height="962"/>
  <unicode hex="0065"/>
  <outline>
    <contour>
      <point x="116" y="134" type="line" smooth="yes"/>
      <point x="102" y="64"/>
      <point x="141" y="36"/>
      <point x="206" y="36" type="curve" smooth="yes"/>
      <point x="256" y="36"/>
      <point x="305" y="52"/>
      <point x="362" y="78" type="curve"/>
      <point x="375" y="35" type="line"/>
      <point x="318" y="5"/>
      <point x="252" y="-12"/>
      <point x="201" y="-12" type="curve" smooth="yes"/>
      <point x="100" y="-12"/>
      <point x="40" y="30"/>
      <point x="63" y="142" type="curve" smooth="yes"/>
      <point x="104" y="339" type="line" smooth="yes"/>
      <point x="127" y="450"/>
      <point x="206" y="510"/>
      <point x="315" y="510" type="curve" smooth="yes"/>
      <point x="424" y="510"/>
      <point x="488" y="451"/>
      <point x="465" y="342" type="curve" smooth="yes"/>
      <point x="437" y="212" type="line"/>
      <point x="129" y="196" type="line"/>
    </contour>
    <contour>
      <point x="410" y="349" type="line" smooth="yes"/>
      <point x="424" y="418"/>
      <point x="383" y="463"/>
      <point x="313" y="463" type="curve" smooth="yes"/>
      <point x="232" y="463"/>
      <point x="178" y="417"/>
      <point x="159" y="338" type="curve" smooth="yes"/>
      <point x="141" y="251" type="line"/>
      <point x="392" y="262" type="line"/>
    </contour>
  </outline>
</glyph>
<glyph name="g" format="1">
  <advance width="441" height="962"/>
  <unicode hex="0067"/>
  <outline>
    <contour>
      <point x="387.475" y="-64.1792" type="line" smooth="yes"/>
      <point x="370.419" y="-144.403"/>
      <point x="329.375" y="-186.521"/>
      <point x="248.046" y="-210.588" type="curve"/>
      <point x="241.168" y="-167.468" type="line"/>
      <point x="289.129" y="-149.417"/>
      <point x="319.229" y="-116.325"/>
      <point x="330.529" y="-63.1764" type="curve" smooth="yes"/>
      <point x="356.966" y="61.1708" type="line"/>
      <point x="326.163" y="20.056"/>
      <point x="260.175" y="-12.0336"/>
      <point x="200.007" y="-12.0336" type="curve" smooth="yes"/>
      <point x="87.6936" y="-12.0336"/>
      <point x="42.5996" y="54.1512"/>
      <point x="68.3968" y="175.49" type="curve" smooth="yes"/>
      <point x="104.641" y="345.966" type="line" smooth="yes"/>
      <point x="127.24" y="452.263"/>
      <point x="201.842" y="515.439"/>
      <point x="309.868" y="509.422" type="curve" smooth="yes"/>
      <point x="358.579" y="507.417"/>
      <point x="403.666" y="488.364"/>
      <point x="440.114" y="452.263" type="curve"/>
      <point x="450.134" y="499.394" type="line"/>
      <point x="507.294" y="499.394" type="line"/>
    </contour>
    <contour>
      <point x="427.535" y="393.098" type="line"/>
      <point x="409.2" y="434.212"/>
      <point x="353.51" y="455.271"/>
      <point x="311.242" y="459.282" type="curve" smooth="yes"/>
      <point x="250.348" y="465.299"/>
      <point x="179.346" y="433.21"/>
      <point x="160.158" y="342.958" type="curve" smooth="yes"/>
      <point x="122.635" y="166.465" type="line" smooth="yes"/>
      <point x="104.726" y="82.2296"/>
      <point x="137.889" y="40.112"/>
      <point x="214.102" y="40.112" type="curve" smooth="yes"/>
      <point x="291.318" y="40.112"/>
      <point x="362.935" y="89.2492"/>
      <point x="380.844" y="173.484" type="curve" smooth="yes"/>
    </contour>
  </outline>
</glyph>
<glyph name="h" format="2">
  <advance width="444"/>
  <unicode hex="0068"/>
  <outline>
    <contour>
      <point x="197" y="467" type="line"/>
      <point x="241" y="493"/>
      <point x="296" y="510"/>
      <point x="345" y="510" type="curve" smooth="yes"/>
      <point x="456" y="510"/>
      <point x="507" y="452"/>
      <point x="485" y="346" type="curve" smooth="yes"/>
      <point x="411" y="0" type="line"/>
      <point x="355" y="0" type="line"/>
      <point x="428" y="343" type="line" smooth="yes"/>
      <point x="447" y="434"/>
      <point x="387" y="460"/>
      <point x="324" y="460" type="curve" smooth="yes"/>
      <point x="278" y="460"/>
      <point x="234" y="448"/>
      <point x="188" y="425" type="curve"/>
      <point x="98" y="0" type="line"/>
      <point x="41" y="0" type="line"/>
      <point x="190" y="700" type="line"/>
      <point x="246" y="700" type="line"/>
    </contour>
  </outline>
</glyph>
<glyph name="o" format="2">
  <advance width="430"/>
  <unicode hex="006F"/>
  <outline>
    <contour>
      <point x="438" y="185" type="line" smooth="yes"/>
      <point x="414" y="69"/>
      <point x="338" y="-10"/>
      <point x="216" y="-10" type="curve" smooth="yes"/>
      <point x="91" y="-10"/>
      <point x="45" y="77"/>
      <point x="68" y="185" type="curve" smooth="yes"/>
      <point x="97" y="316" type="line" smooth="yes"/>
      <point x="124" y="443"/>
      <point x="205" y="512"/>
      <point x="325" y="512" type="curve" smooth="yes"/>
      <point x="443" y="512"/>
      <point x="492" y="438"/>
      <point x="467" y="316" type="curve" smooth="yes"/>
    </contour>
    <contour>
      <point x="410" y="316" type="line" smooth="yes"/>
      <point x="431" y="412"/>
      <point x="403" y="462"/>
      <point x="316" y="462" type="curve" smooth="yes"/>
      <point x="228" y="462"/>
      <point x="173" y="412"/>
      <point x="153" y="316" type="curve" smooth="yes"/>
      <point x="123" y="175" type="line" smooth="yes"/>
      <point x="106" y="95"/>
      <point x="145" y="40"/>
      <point x="226" y="40" type="curve" smooth="yes"/>
      <point x="310" y="40"/>
      <point x="363" y="93"/>
      <point x="380" y="175" type="curve" smooth="yes"/>
    </contour>
  </outline>
</glyph>
<glyph name="r" format="2">
  <advance width="333"/>
  <unicode hex="0072"/>
  <outline>
    <contour>
      <point x="403.713" y="460.285" type="line"/>
      <point x="403.713" y="460.285"/>
      <point x="384.296" y="463.294"/>
      <point x="361.808" y="461.288" type="curve" smooth="yes"/>
      <point x="306.228" y="459.282"/>
      <point x="222.68" y="434.212"/>
      <point x="181.249" y="409.142" type="curve"/>
      <point x="94.2632" y="0" type="line"/>
      <point x="38.1064" y="0" type="line"/>
      <point x="144.493" y="500.397" type="line"/>
      <point x="200.65" y="500.397" type="line"/>
      <point x="193.614" y="467.305" type="line"/>
      <point x="248.658" y="490.369"/>
      <point x="300.63" y="508.42"/>
      <point x="373.471" y="511.428" type="curve" smooth="yes"/>
      <point x="397.965" y="513.434"/>
      <point x="417.958" y="508.42"/>
      <point x="417.958" y="508.42" type="curve"/>
    </contour>
  </outline>
</glyph>
<glyph name="x" format="1">
  <advance width="437" height="962"/>
  <unicode hex="0078"/>
  <outline>
    <contour>
      <point x="280" y="296" type="line"/>
      <point x="453" y="500" type="line"/>
      <point x="515" y="500" type="line"/>
      <point x="304" y="248" type="line"/>
      <point x="408" y="0" type="line"/>
      <point x="346" y="0" type="line"/>
      <point x="263" y="199" type="line"/>
      <point x="97" y="0" type="line"/>
      <point x="30" y="0" type="line"/>
      <point x="239" y="249" type="line"/>
      <point x="137" y="500" type="line"/>
      <point x="201" y="500" type="line"/>
    </contour>
  </outline>
</glyph>
<glyph name="y" format="2">
  <advance width="469"/>
  <unicode hex="0079"/>
  <outline>
    <contour>
      <point x="538" y="470" type="line"/>
      <point x="518" y="462"/>
      <point x="501" y="450"/>
      <point x="492" y="408" type="curve" smooth="yes"/>
      <point x="392" y="-62" type="line" smooth="yes"/>
      <point x="374" y="-147"/>
      <point x="336" y="-184"/>
      <point x="256" y="-209" type="curve"/>
      <point x="249" y="-166" type="line"/>
      <point x="297" y="-148"/>
      <point x="325" y="-112"/>
      <point x="336" y="-61" type="curve" smooth="yes"/>
      <point x="360" y="50" type="line"/>
      <point x="318" y="10"/>
      <point x="259" y="-9"/>
      <point x="208" y="-9" type="curve" smooth="yes"/>
      <point x="98" y="-9"/>
      <point x="45" y="44"/>
      <point x="69" y="158" type="curve" smooth="yes"/>
      <point x="142" y="501" type="line"/>
      <point x="198" y="501" type="line"/>
      <point x="126" y="162" type="line" smooth="yes"/>
      <point x="106" y="69"/>
      <point x="169" y="44"/>
      <point x="231" y="44" type="curve" smooth="yes"/>
      <point x="303" y="44"/>
      <point x="371" y="104"/>
      <point x="386" y="174" type="curve" smooth="yes"/>
      <point x="436" y="409" type="line" smooth="yes"/>
      <point x="446" y="455"/>
      <point x="476" y="496"/>
      <point x="527" y="512" type="curve"/>
    </contour>
  </outline>
</glyph>
<glyph name="sterling" format="1">
  <advance width="428" height="962"/>
  <unicode hex="00A3"/>
  <outline>
    <contour>
      <point x="125" y="53" type="line" smooth="yes"/>
      <point x="217" y="53"/>
      <point x="319" y="109"/>
      <point x="331" y="208" type="curve" smooth="yes"/>
      <point x="334" y="236"/>
      <point x="328" y="265"/>
      <point x="310" y="292" type="curve" smooth="yes"/>
      <point x="278" y="340" type="line"/>
      <point x="107" y="340" type="line"/>
      <point x="119" y="397" type="line"/>
      <point x="239" y="397" type="line"/>
      <point x="224" y="420" type="line" smooth="yes"/>
      <point x="199" y="460"/>
      <point x="181" y="501"/>
      <point x="182" y="545" type="curve" smooth="yes"/>
      <point x="185" y="646"/>
      <point x="274" y="708"/>
      <point x="368" y="708" type="curve" smooth="yes"/>
      <point x="416" y="709"/>
      <point x="465" y="695"/>
      <point x="504" y="671" type="curve"/>
      <point x="475" y="622" type="line"/>
      <point x="438" y="648"/>
      <point x="395" y="661"/>
      <point x="352" y="656" type="curve" smooth="yes"/>
      <point x="292" y="650"/>
      <point x="240" y="606"/>
      <point x="240" y="543" type="curve" smooth="yes"/>
      <point x="240" y="508"/>
      <point x="258" y="478"/>
      <point x="274" y="455" type="curve" smooth="yes"/>
      <point x="311" y="397" type="line"/>
      <point x="478" y="397" type="line"/>
      <point x="466" y="340" type="line"/>
      <point x="350" y="340" type="line"/>
      <point x="359" y="325" type="line" smooth="yes"/>
      <point x="382" y="289"/>
      <point x="391" y="248"/>
      <point x="386" y="207" type="curve" smooth="yes"/>
      <point x="378" y="148"/>
      <point x="335" y="82"/>
      <point x="283" y="53" type="curve"/>
      <point x="405" y="53" type="line"/>
      <point x="393" y="0" type="line"/>
      <point x="34" y="0" type="line"/>
      <point x="46" y="53" type="line"/>
    </contour>
  </outline>
</glyph>
<glyph name="degree" format="1">
  <advance width="348" height="962"/>
  <unicode hex="00B0"/>
  <outline>
    <contour>
      <point x="440" y="565" type="curve" smooth="yes"/>
      <point x="423" y="485"/>
      <point x="344" y="419"/>
      <point x="264" y="419" type="curve" smooth="yes"/>
      <point x="183" y="419"/>
      <point x="131" y="485"/>
      <point x="148" y="565" type="curve" smooth="yes"/>
      <point x="165" y="645"/>
      <point x="245" y="710"/>
      <point x="326" y="710" type="curve" smooth="yes"/>
      <point x="406" y="710"/>
      <point x="457" y="645"/>
    </contour>
    <contour>
      <point x="315" y="660" type="curve" smooth="yes"/>
      <point x="263" y="660"/>
      <point x="210" y="616"/>
      <point x="199" y="565" type="curve" smooth="yes"/>
      <point x="188" y="515"/>
      <point x="223" y="471"/>
      <point x="275" y="471" type="curve" smooth="yes"/>
      <point x="326" y="471"/>
      <point x="378" y="515"/>
      <point x="389" y="565" type="curve" smooth="yes"/>
      <point x="400" y="616"/>
      <point x="366" y="660"/>
    </contour>
  </outline>
</glyph>
<glyph name="guillemotright" format="2">
  <advance width="504" height="962"/>
  <unicode hex="00BB"/>
  <outline>
    <contour>
      <point x="244" y="274" type="line"/>
      <point x="127" y="424" type="line"/>
      <point x="164" y="455" type="line"/>
      <point x="312" y="267" type="line"/>
      <point x="84" y="79" type="line"/>
      <point x="57" y="114" type="line"/>
    </contour>
    <contour>
      <point x="464" y="274" type="line"/>
      <point x="347" y="424" type="line"/>
      <point x="385" y="455" type="line"/>
      <point x="531" y="267" type="line"/>
      <point x="305" y="79" type="line"/>
      <point x="277" y="114" type="line"/>
    </contour>
  </outline>
</glyph>
<glyph name="AE" format="1">
  <advance width="752" height="962"/>
  <unicode hex="00C6"/>
  <outline>
    <contour>
      <point x="384" y="0" type="line"/>
      <point x="436" y="244" type="line"/>
      <point x="225" y="244" type="line"/>
      <point x="79" y="0" type="line"/>
      <point x="20" y="0" type="line"/>
      <point x="441" y="700" type="line"/>
      <point x="870" y="700" type="line"/>
      <point x="859" y="647" type="line"/>
      <point x="579" y="647" type="line"/>
      <point x="530" y="414" type="line"/>
      <point x="721" y="414" type="line"/>
      <point x="690" y="356" type="line"/>
      <point x="517" y="356" type="line"/>
      <point x="452" y="50" type="line"/>
      <point x="729" y="50" type="line"/>
      <point x="718" y="0" type="line"/>
    </contour>
    <contour>
      <point x="258" y="300" type="line"/>
      <point x="448" y="300" type="line"/>
      <point x="522" y="647" type="line"/>
      <point x="468" y="647" type="line"/>
    </contour>
  </outline>
</glyph>
<glyph name="germandbls" format="2">
  <advance width="466"/>
  <unicode hex="00DF"/>
  <outline>
    <contour>
      <point x="96" y="0" type="line"/>
      <point x="39" y="0" type="line"/>
      <point x="154" y="538" type="line" smooth="yes"/>
      <point x="175" y="641"/>
      <point x="236" y="697"/>
      <point x="323" y="700" type="curve" smooth="yes"/>
      <point x="407" y="703"/>
      <point x="437" y="637"/>
      <point x="426" y="572" type="curve" smooth="yes"/>
      <point x="420" y="535"/>
      <point x="402" y="499"/>
      <point x="370" y="477" type="curve"/>
      <point x="371" y="477"/>
      <point x="339" y="477"/>
      <point x="340" y="477" type="curve"/>
      <point x="330" y="465"/>
      <point x="325" y="453"/>
      <point x="324" y="440" type="curve" smooth="yes"/>
      <point x="318" y="358"/>
      <point x="500" y="285"/>
      <point x="470" y="142" type="curve" smooth="yes"/>
      <point x="448" y="40"/>
      <point x="363" y="-7"/>
      <point x="281" y="-11" type="curve" smooth="yes"/>
      <point x="226" y="-13"/>
      <point x="175" y="4"/>
      <point x="141" y="36" type="curve"/>
      <point x="174" y="77" type="line"/>
      <point x="212" y="46"/>
      <point x="244" y="43"/>
      <point x="283" y="43" type="curve" smooth="yes"/>
      <point x="340" y="43"/>
      <point x="398" y="77"/>
      <point x="412" y="144" type="curve" smooth="yes"/>
      <point x="438" y="262"/>
      <point x="251" y="326"/>
      <point x="265" y="434" type="curve" smooth="yes"/>
      <point x="268" y="457"/>
      <point x="278" y="482"/>
      <point x="298" y="508" type="curve"/>
      <point x="343" y="508"/>
      <point x="368" y="542"/>
      <point x="372" y="577" type="curve" smooth="yes"/>
      <point x="378" y="613"/>
      <point x="359" y="647"/>
      <point x="316" y="647" type="curve" smooth="yes"/>
      <point x="261" y="647"/>
      <point x="225" y="611"/>
      <point x="210" y="541" type="curve" smooth="yes"/>
    </contour>
  </outline>
</glyph>
<glyph name="dotlessi" format="2">
  <advance width="135"/>
  <unicode hex="0131"/>
  <outline>
    <contour>
      <point x="38" y="0" type="line"/>
      <point x="145" y="501" type="line"/>
      <point x="201" y="501" type="line"/>
      <point x="95" y="0" type="line"/>
    </contour>
  </outline>
</glyph>
<glyph name="Lslash" format="1">
  <advance width="511" height="962"/>
  <unicode hex="0141"/>
  <outline>
    <component base="L" xOffset="85"/>
    <contour>
      <point x="106" y="309" type="line"/>
      <point x="95" y="359" type="line"/>
      <point x="414" y="490" type="line"/>
      <point x="427" y="440" type="line"/>
    </contour>
  </outline>
</glyph>
<glyph name="lslash" format="2">
  <advance width="354"/>
  <unicode hex="0142"/>
  <outline>
    <component base="l" xOffset="106"/>
    <contour>
      <point x="412" y="489" type="line"/>
      <point x="424" y="439" type="line"/>
      <point x="105" y="308" type="line"/>
      <point x="93" y="357" type="line"/>
    </contour>
  </outline>
</glyph>
<glyph name="Tbar" format="1">
  <advance width="417" height="962"/>
  <unicode hex="0166"/>
  <outline>
    <component base="T"/>
    <contour>
      <point x="89" y="379" type="line"/>
      <point x="489" y="379" type="line"/>
      <point x="478" y="326" type="line"/>
      <point x="78" y="326" type="line"/>
    </contour>
  </outline>
</glyph>
<glyph name="dotlessj" format="2">
  <advance width="188"/>
  <unicode hex="0237"/>
  <outline>
    <contour>
      <point x="133.986" y="-63.1764" type="line" smooth="yes"/>
      <point x="116.725" y="-144.403"/>
      <point x="78.9069" y="-185.518"/>
      <point x="-2.4203" y="-209.585" type="curve"/>
      <point x="-9.3018" y="-166.465" type="line"/>
      <point x="40.6628" y="-148.414"/>
      <point x="67.8138" y="-110.308"/>
      <point x="78.0426" y="-62.1736" type="curve" smooth="yes"/>
      <point x="186.51" y="448.252" type="line"/>
      <point x="123.334" y="448.252" type="line"/>
      <point x="134.415" y="500.397" type="line"/>
      <point x="253.748" y="500.397" type="line"/>
    </contour>
  </outline>
</glyph>
<glyph name="breve" format="1">
  <advance width="267" height="962"/>
  <unicode hex="02D8"/>
  <outline>
    <contour>
      <point x="395" y="704" type="line"/>
      <point x="394" y="697" type="line" smooth="yes"/>
      <point x="381" y="635"/>
      <point x="320" y="584"/>
      <point x="257" y="584" type="curve" smooth="yes"/>
      <point x="196" y="584"/>
      <point x="155" y="634"/>
      <point x="168" y="697" type="curve" smooth="yes"/>
      <point x="170" y="704" type="line"/>
      <point x="215" y="704" type="line"/>
      <point x="213" y="697" type="line" smooth="yes"/>
      <point x="206" y="660"/>
      <point x="217" y="629"/>
      <point x="264" y="629" type="curve" smooth="yes"/>
      <point x="303" y="629"/>
      <point x="341" y="660"/>
      <point x="349" y="697" type="curve" smooth="yes"/>
      <point x="350" y="704" type="line"/>
    </contour>
  </outline>
</glyph>
<glyph name="gravecomb" format="1">
  <advance width="267" height="962"/>
  <unicode hex="0300"/>
  <outline>
    <contour>
      <point x="267" y="711" type="curve" smooth="yes"/>
      <point x="282" y="610" type="line"/>
      <point x="246" y="610" type="line"/>
      <point x="210" y="689" type="line" smooth="yes"/>
      <point x="203" y="705"/>
      <point x="206" y="730"/>
      <point x="226" y="737" type="curve" smooth="yes"/>
      <point x="247" y="744"/>
      <point x="264" y="730"/>
    </contour>
  </outline>
</glyph>
<glyph name="acutecomb" format="2">
  <advance width="267"/>
  <unicode hex="0301"/>
  <outline>
    <contour>
      <point x="342" y="684" type="curve" smooth="yes"/>
      <point x="272" y="605" type="line"/>
      <point x="237" y="605" type="line"/>
      <point x="298" y="712" type="line" smooth="yes"/>
      <point x="309" y="731"/>
      <point x="330" y="741"/>
      <point x="345" y="731" type="curve" smooth="yes"/>
      <point x="361" y="721"/>
      <point x="357" y="701"/>
    </contour>
  </outline>
</glyph>
<glyph name="caroncomb" format="2">
  <advance width="267"/>
  <unicode hex="030C"/>
  <outline>
    <contour>
      <point x="416" y="717" type="line"/>
      <point x="257" y="589" type="line"/>
      <point x="155" y="715" type="line"/>
      <point x="199" y="750" type="line"/>
      <point x="269" y="663" type="line"/>
      <point x="384" y="755" type="line"/>
    </contour>
  </outline>
</glyph>
<glyph name="ogonekcomb" format="2">
  <advance width="267" height="962"/>
  <unicode hex="0328"/>
  <outline>
    <contour>
      <point x="164" y="11" type="line"/>
      <point x="162" y="2" type="line"/>
      <point x="70" y="-113" type="line" smooth="yes"/>
      <point x="34" y="-158"/>
      <point x="54" y="-192"/>
      <point x="107" y="-175" type="curve" smooth="yes"/>
      <point x="166" y="-155"/>
      <point x="210" y="-141"/>
      <point x="211" y="-141" type="curve"/>
      <point x="221" y="-180" type="line"/>
      <point x="221" y="-180"/>
      <point x="127" y="-212"/>
      <point x="109" y="-217" type="curve" smooth="yes"/>
      <point x="14" y="-241"/>
      <point x="-21" y="-170"/>
      <point x="36" y="-99" type="curve" smooth="yes"/>
      <point x="118" y="3" type="line"/>
      <point x="120" y="11" type="line"/>
    </contour>
  </outline>
</glyph>
<glyph name="dieresistonoscomb" format="2">
  <advance width="267"/>
  <unicode hex="0344"/>
  <outline>
    <contour>
      <point x="234" y="692" type="curve" smooth="yes"/>
      <point x="230" y="674"/>
      <point x="213" y="659"/>
      <point x="194" y="659" type="curve" smooth="yes"/>
      <point x="176" y="659"/>
      <point x="163" y="674"/>
      <point x="167" y="692" type="curve" smooth="yes"/>
      <point x="171" y="711"/>
      <point x="190" y="725"/>
      <point x="208" y="725" type="curve" smooth="yes"/>
      <point x="227" y="725"/>
      <point x="238" y="711"/>
    </contour>
    <contour>
      <point x="393" y="692" type="curve" smooth="yes"/>
      <point x="389" y="674"/>
      <point x="371" y="659"/>
      <point x="352" y="659" type="curve" smooth="yes"/>
      <point x="335" y="659"/>
      <point x="322" y="674"/>
      <point x="326" y="692" type="curve" smooth="yes"/>
      <point x="330" y="711"/>
      <point x="349" y="725"/>
      <point x="366" y="725" type="curve" smooth="yes"/>
      <point x="385" y="725"/>
      <point x="397" y="711"/>
    </contour>
    <contour>
      <point x="371" y="816" type="curve" smooth="yes"/>
      <point x="301" y="736" type="line"/>
      <point x="265" y="736" type="line"/>
      <point x="326" y="843" type="line" smooth="yes"/>
      <point x="336" y="861"/>
      <point x="359" y="873"/>
      <point x="374" y="863" type="curve" smooth="yes"/>
      <point x="391" y="853"/>
      <point x="385" y="831"/>
    </contour>
  </outline>
  <guideline angle="90" x="283.745" y="0"/>
</glyph>
<glyph name="Gamma" format="2">
  <advance width="383"/>
  <unicode hex="0393"/>
  <outline>
    <contour>
      <point x="41" y="0" type="line"/>
      <point x="190" y="700" type="line"/>
      <point x="524" y="700" type="line"/>
      <point x="513" y="647" type="line"/>
      <point x="235" y="647" type="line"/>
      <point x="98" y="0" type="line"/>
    </contour>
  </outline>
</glyph>
<glyph name="Theta" format="2">
  <advance width="492"/>
  <unicode hex="0398"/>
  <outline>
    <component base="O"/>
    <contour>
      <point x="164" y="380" type="line"/>
      <point x="485" y="380" type="line"/>
      <point x="474" y="323" type="line"/>
      <point x="152" y="323" type="line"/>
    </contour>
  </outline>
  <guideline angle="0" x="0" y="340"/>
</glyph>
<glyph name="Sigma" format="2">
  <advance width="523" height="962"/>
  <unicode hex="03A3"/>
  <outline>
    <contour>
      <point x="355" y="50" type="line" smooth="yes"/>
      <point x="406" y="50"/>
      <point x="451" y="76"/>
      <point x="475" y="122" type="curve"/>
      <point x="515" y="107" type="line"/>
      <point x="478" y="32"/>
      <point x="427" y="0"/>
      <point x="348" y="0" type="curve" smooth="yes"/>
      <point x="25" y="0" type="line"/>
      <point x="334" y="385" type="line"/>
      <point x="190" y="700" type="line"/>
      <point x="618" y="700" type="line"/>
      <point x="588" y="647" type="line"/>
      <point x="279" y="647" type="line"/>
      <point x="400" y="382" type="line"/>
      <point x="134" y="50" type="line"/>
    </contour>
  </outline>
</glyph>
<glyph name="Phi" format="2">
  <advance width="595"/>
  <unicode hex="03A6"/>
  <outline>
    <contour>
      <point x="321" y="661" type="line"/>
      <point x="257" y="647"/>
      <point x="216" y="598"/>
      <point x="199" y="518" type="curve" smooth="yes"/>
      <point x="135" y="216" type="line" smooth="yes"/>
      <point x="117" y="127"/>
      <point x="160" y="79"/>
      <point x="241" y="79" type="curve" smooth="yes"/>
      <point x="284" y="79" type="line"/>
      <point x="395" y="605" type="line" smooth="yes"/>
      <point x="410" y="674"/>
      <point x="466" y="710"/>
      <point x="528" y="710" type="curve" smooth="yes"/>
      <point x="645" y="710"/>
      <point x="694" y="633"/>
      <point x="668" y="511" type="curve" smooth="yes"/>
      <point x="607" y="225" type="line" smooth="yes"/>
      <point x="582" y="105"/>
      <point x="508" y="30"/>
      <point x="380" y="30" type="curve" smooth="yes"/>
      <point x="331" y="30" type="line"/>
      <point x="317" y="-35" type="line"/>
      <point x="261" y="-28" type="line"/>
      <point x="274" y="30" type="line"/>
      <point x="230" y="30" type="line" smooth="yes"/>
      <point x="103" y="30"/>
      <point x="55" y="105"/>
      <point x="81" y="225" type="curve" smooth="yes"/>
      <point x="143" y="518" type="line" smooth="yes"/>
      <point x="165" y="618"/>
      <point x="217" y="681"/>
      <point x="301" y="706" type="curve"/>
    </contour>
    <contour>
      <point x="390" y="79" type="line" smooth="yes"/>
      <point x="472" y="79"/>
      <point x="534" y="127"/>
      <point x="552" y="216" type="curve" smooth="yes"/>
      <point x="617" y="521" type="line" smooth="yes"/>
      <point x="635" y="602"/>
      <point x="599" y="658"/>
      <point x="527" y="658" type="curve" smooth="yes"/>
      <point x="489" y="658"/>
      <point x="459" y="631"/>
      <point x="450" y="589" type="curve" smooth="yes"/>
      <point x="341" y="79" type="line"/>
    </contour>
  </outline>
</glyph>
<glyph name="Chi" format="2">
  <advance width="556" height="962"/>
  <unicode hex="03A7"/>
  <outline>
    <contour>
      <point x="368" y="412" type="line"/>
      <point x="602" y="700" type="line"/>
      <point x="676" y="700" type="line"/>
      <point x="393" y="353" type="line"/>
      <point x="532" y="0" type="line"/>
      <point x="469" y="0" type="line"/>
      <point x="349" y="300" type="line"/>
      <point x="101" y="0" type="line"/>
      <point x="25" y="0" type="line"/>
      <point x="325" y="360" type="line"/>
      <point x="192" y="700" type="line"/>
      <point x="255" y="700" type="line"/>
    </contour>
  </outline>
  <guideline angle="50.5" x="110.057" y="100"/>
  <guideline angle="111.8" x="493.333" y="100"/>
  <guideline angle="50.5" x="185.706" y="100"/>
  <guideline angle="111.8" x="429.551" y="100"/>
</glyph>
<glyph name="iotatonos" format="1">
  <advance width="135" height="962"/>
  <unicode hex="03AF"/>
  <outline>
    <component base="dotlessi"/>
    <contour>
      <point x="276" y="649" type="curve" smooth="yes"/>
      <point x="206" y="570" type="line"/>
      <point x="171" y="570" type="line"/>
      <point x="232" y="677" type="line" smooth="yes"/>
      <point x="243" y="696"/>
      <point x="263" y="706"/>
      <point x="279" y="696" type="curve" smooth="yes"/>
      <point x="295" y="686"/>
      <point x="291" y="666"/>
    </contour>
  </outline>
</glyph>
<glyph name="beta" format="1">
  <advance width="442" height="962"/>
  <unicode hex="03B2"/>
  <outline>
    <contour>
      <point x="150" y="522" type="line" smooth="yes"/>
      <point x="171" y="618"/>
      <point x="240" y="703"/>
      <point x="352" y="703" type="curve" smooth="yes"/>
      <point x="446" y="703"/>
      <point x="489" y="637"/>
      <point x="467" y="546" type="curve" smooth="yes"/>
      <point x="458" y="506"/>
      <point x="430" y="443"/>
      <point x="360" y="405" type="curve"/>
      <point x="376" y="405" type="line" smooth="yes"/>
      <point x="447" y="405"/>
      <point x="489" y="358"/>
      <point x="467" y="254" type="curve" smooth="yes"/>
      <point x="448" y="169" type="line" smooth="yes"/>
      <point x="417" y="21"/>
      <point x="323" y="-14"/>
      <point x="195" y="-10" type="curve" smooth="yes"/>
      <point x="171" y="-10"/>
      <point x="130" y="-5"/>
      <point x="97" y="2" type="curve"/>
      <point x="50" y="-213" type="line"/>
      <point x="1" y="-188" type="line"/>
    </contour>
    <contour>
      <point x="208" y="526" type="curve" smooth="yes"/>
      <point x="177" y="382" type="line"/>
      <point x="246" y="397" type="line" smooth="yes"/>
      <point x="337" y="417"/>
      <point x="390" y="479"/>
      <point x="408" y="545" type="curve" smooth="yes"/>
      <point x="424" y="600"/>
      <point x="397" y="647"/>
      <point x="339" y="647" type="curve" smooth="yes"/>
      <point x="273" y="647"/>
      <point x="221" y="586"/>
    </contour>
    <contour>
      <point x="108" y="50" type="line"/>
      <point x="107" y="51"/>
      <point x="147" y="38"/>
      <point x="211" y="38" type="curve" smooth="yes"/>
      <point x="344" y="38"/>
      <point x="376" y="80"/>
      <point x="396" y="176" type="curve" smooth="yes"/>
      <point x="413" y="252" type="line" smooth="yes"/>
      <point x="432" y="343"/>
      <point x="377" y="357"/>
      <point x="339" y="357" type="curve" smooth="yes"/>
      <point x="306" y="357"/>
      <point x="255" y="347"/>
      <point x="223" y="339" type="curve" smooth="yes"/>
      <point x="165" y="326" type="line"/>
    </contour>
  </outline>
</glyph>
<glyph name="delta" format="2">
  <advance width="432"/>
  <unicode hex="03B4"/>
  <outline>
    <contour>
      <point x="381" y="653" type="line" smooth="yes"/>
      <point x="345" y="653"/>
      <point x="312" y="633"/>
      <point x="305" y="601" type="curve" smooth="yes"/>
      <point x="297" y="561"/>
      <point x="316" y="541"/>
      <point x="341" y="523" type="curve" smooth="yes"/>
      <point x="386" y="487"/>
      <point x="430" y="457"/>
      <point x="455" y="403" type="curve" smooth="yes"/>
      <point x="470" y="369"/>
      <point x="470" y="323"/>
      <point x="461" y="280" type="curve" smooth="yes"/>
      <point x="440" y="184" type="line" smooth="yes"/>
      <point x="413" y="54"/>
      <point x="337" y="-11"/>
      <point x="213" y="-11" type="curve" smooth="yes"/>
      <point x="86" y="-11"/>
      <point x="41" y="62"/>
      <point x="67" y="184" type="curve" smooth="yes"/>
      <point x="94" y="309" type="line" smooth="yes"/>
      <point x="114" y="404"/>
      <point x="178" y="484"/>
      <point x="285" y="507" type="curve"/>
      <point x="278" y="515" type="line" smooth="yes"/>
      <point x="251" y="544"/>
      <point x="247" y="588"/>
      <point x="254" y="613" type="curve" smooth="yes"/>
      <point x="270" y="670"/>
      <point x="322" y="704"/>
      <point x="394" y="700" type="curve"/>
      <point x="506" y="700" type="line"/>
      <point x="474" y="653" type="line"/>
    </contour>
    <contour>
      <point x="408" y="295" type="line" smooth="yes"/>
      <point x="422" y="361"/>
      <point x="394" y="415"/>
      <point x="350" y="449" type="curve" smooth="yes"/>
      <point x="328" y="465" type="line"/>
      <point x="212" y="452"/>
      <point x="160" y="357"/>
      <point x="150" y="309" type="curve" smooth="yes"/>
      <point x="122" y="174" type="line" smooth="yes"/>
      <point x="103" y="85"/>
      <point x="145" y="38"/>
      <point x="225" y="38" type="curve" smooth="yes"/>
      <point x="310" y="38"/>
      <point x="363" y="84"/>
      <point x="382" y="174" type="curve" smooth="yes"/>
    </contour>
  </outline>
</glyph>
<glyph name="sigma" format="1">
  <advance width="446" height="962"/>
  <unicode hex="03C3"/>
  <outline>
    <contour>
      <point x="554" y="517" type="line"/>
      <point x="522" y="480"/>
      <point x="489" y="461"/>
      <point x="458" y="453" type="curve"/>
      <point x="472" y="431"/>
      <point x="482" y="394"/>
      <point x="467" y="320" type="curve" smooth="yes"/>
      <point x="437" y="185" type="line" smooth="yes"/>
      <point x="413" y="69"/>
      <point x="337" y="-10"/>
      <point x="215" y="-10" type="curve" smooth="yes"/>
      <point x="90" y="-10"/>
      <point x="44" y="77"/>
      <point x="67" y="185" type="curve" smooth="yes"/>
      <point x="97" y="320" type="line" smooth="yes"/>
      <point x="128" y="471"/>
      <point x="235" y="512"/>
      <point x="324" y="512" type="curve" smooth="yes"/>
      <point x="372" y="512"/>
      <point x="414" y="500"/>
      <point x="443" y="504" type="curve" smooth="yes"/>
      <point x="465" y="506"/>
      <point x="501" y="521"/>
      <point x="527" y="543" type="curve"/>
    </contour>
    <contour>
      <point x="412" y="334" type="line" smooth="yes"/>
      <point x="425" y="396"/>
      <point x="415" y="432"/>
      <point x="402" y="449" type="curve"/>
      <point x="375" y="451"/>
      <point x="343" y="459"/>
      <point x="312" y="459" type="curve" smooth="yes"/>
      <point x="254" y="459"/>
      <point x="179" y="429"/>
      <point x="157" y="327" type="curve" smooth="yes"/>
      <point x="125" y="175" type="line" smooth="yes"/>
      <point x="108" y="95"/>
      <point x="142" y="40"/>
      <point x="221" y="40" type="curve" smooth="yes"/>
      <point x="305" y="40"/>
      <point x="361" y="93"/>
      <point x="378" y="175" type="curve" smooth="yes"/>
    </contour>
  </outline>
</glyph>
<glyph name="tau" format="2">
  <advance width="351"/>
  <unicode hex="03C4"/>
  <outline>
    <contour>
      <point x="227" y="133" type="line" smooth="yes"/>
      <point x="216" y="79"/>
      <point x="231" y="46"/>
      <point x="272" y="30" type="curve"/>
      <point x="246" y="-13" type="line"/>
      <point x="176" y="9"/>
      <point x="154" y="54"/>
      <point x="171" y="133" type="curve" smooth="yes"/>
      <point x="238" y="447" type="line"/>
      <point x="118" y="447" type="line"/>
      <point x="129" y="500" type="line"/>
      <point x="432" y="500" type="line"/>
      <point x="421" y="447" type="line"/>
      <point x="294" y="447" type="line"/>
    </contour>
  </outline>
</glyph>
<glyph name="psi" format="2">
  <advance width="594"/>
  <unicode hex="03C8"/>
  <outline>
    <contour>
      <point x="635" y="506" type="line"/>
      <point x="656" y="472"/>
      <point x="653" y="438"/>
      <point x="642" y="387" type="curve" smooth="yes"/>
      <point x="600" y="189" type="line" smooth="yes"/>
      <point x="574" y="68"/>
      <point x="497" y="-7"/>
      <point x="370" y="-7" type="curve" smooth="yes"/>
      <point x="326" y="-7" type="line"/>
      <point x="281" y="-217" type="line"/>
      <point x="229" y="-186" type="line"/>
      <point x="268" y="-7" type="line"/>
      <point x="218" y="-7" type="line" smooth="yes"/>
      <point x="93" y="-7"/>
      <point x="48" y="68"/>
      <point x="73" y="189" type="curve" smooth="yes"/>
      <point x="140" y="500" type="line"/>
      <point x="193" y="500" type="line"/>
      <point x="125" y="179" type="line" smooth="yes"/>
      <point x="106" y="91"/>
      <point x="150" y="43"/>
      <point x="229" y="43" type="curve" smooth="yes"/>
      <point x="279" y="43" type="line"/>
      <point x="376" y="500" type="line"/>
      <point x="433" y="500" type="line"/>
      <point x="336" y="43" type="line"/>
      <point x="380" y="43" type="line" smooth="yes"/>
      <point x="460" y="43"/>
      <point x="523" y="91"/>
      <point x="542" y="179" type="curve" smooth="yes"/>
      <point x="586" y="387" type="line" smooth="yes"/>
      <point x="595" y="430"/>
      <point x="598" y="463"/>
      <point x="572" y="489" type="curve"/>
    </contour>
  </outline>
</glyph>
<glyph name="uni0402" format="2">
  <advance width="582"/>
  <unicode hex="0402"/>
  <outline>
    <component base="T"/>
    <contour>
      <point x="480" y="509" type="curve" smooth="yes"/>
      <point x="591" y="509"/>
      <point x="642" y="451"/>
      <point x="619" y="345" type="curve" smooth="yes"/>
      <point x="574" y="131" type="line" smooth="yes"/>
      <point x="557" y="53"/>
      <point x="516" y="8"/>
      <point x="438" y="-14" type="curve"/>
      <point x="429" y="29" type="line"/>
      <point x="477" y="44"/>
      <point x="507" y="78"/>
      <point x="518" y="131" type="curve" smooth="yes"/>
      <point x="563" y="342" type="line" smooth="yes"/>
      <point x="582" y="433"/>
      <point x="523" y="459"/>
      <point x="459" y="459" type="curve" smooth="yes"/>
      <point x="413" y="459"/>
      <point x="368" y="447"/>
      <point x="322" y="424" type="curve"/>
      <point x="331" y="466" type="line"/>
      <point x="375" y="492"/>
      <point x="430" y="509"/>
    </contour>
  </outline>
</glyph>
<glyph name="uni0404" format="2">
  <advance width="424"/>
  <unicode hex="0404"/>
  <outline>
    <component base="C"/>
    <contour>
      <point x="153" y="357" type="line"/>
      <point x="165" y="412" type="line"/>
      <point x="365" y="412" type="line"/>
      <point x="335" y="357" type="line"/>
    </contour>
  </outline>
</glyph>
<glyph name="uni040A" format="2">
  <advance width="831"/>
  <unicode hex="040A"/>
  <outline>
    <contour>
      <point x="734" y="413" type="line" smooth="yes"/>
      <point x="816" y="413"/>
      <point x="879" y="365"/>
      <point x="855" y="253" type="curve" smooth="yes"/>
      <point x="837" y="170" type="line" smooth="yes"/>
      <point x="804" y="19"/>
      <point x="702" y="-9"/>
      <point x="572" y="-9" type="curve" smooth="yes"/>
      <point x="520" y="-9"/>
      <point x="414" y="1"/>
      <point x="414" y="1" type="curve"/>
      <point x="490" y="358" type="line"/>
      <point x="177" y="358" type="line"/>
      <point x="101" y="1" type="line"/>
      <point x="41" y="1" type="line"/>
      <point x="190" y="701" type="line"/>
      <point x="250" y="701" type="line"/>
      <point x="189" y="413" type="line"/>
      <point x="502" y="413" type="line"/>
      <point x="563" y="701" type="line"/>
      <point x="618" y="701" type="line"/>
      <point x="557" y="413" type="line"/>
    </contour>
    <contour>
      <point x="785" y="177" type="curve" smooth="yes"/>
      <point x="800" y="251" type="line" smooth="yes"/>
      <point x="820" y="342"/>
      <point x="763" y="358"/>
      <point x="729" y="358" type="curve" smooth="yes"/>
      <point x="545" y="358" type="line"/>
      <point x="479" y="45" type="line"/>
      <point x="488" y="44"/>
      <point x="527" y="39"/>
      <point x="587" y="39" type="curve" smooth="yes"/>
      <point x="694" y="39"/>
      <point x="758" y="54"/>
    </contour>
  </outline>
  <guideline angle="0" x="0" y="980"/>
  <guideline angle="0" x="0" y="991"/>
  <guideline angle="0" x="0" y="1057"/>
</glyph>
<glyph name="uni040B" format="2">
  <advance width="582"/>
  <unicode hex="040B"/>
  <outline>
    <component base="T" xOffset="-9"/>
    <contour>
      <point x="463" y="510" type="curve" smooth="yes"/>
      <point x="574" y="510"/>
      <point x="633" y="452"/>
      <point x="611" y="346" type="curve" smooth="yes"/>
      <point x="537" y="0" type="line"/>
      <point x="481" y="0" type="line"/>
      <point x="554" y="343" type="line" smooth="yes"/>
      <point x="573" y="434"/>
      <point x="514" y="460"/>
      <point x="450" y="460" type="curve" smooth="yes"/>
      <point x="404" y="460"/>
      <point x="359" y="448"/>
      <point x="313" y="425" type="curve"/>
      <point x="322" y="467" type="line"/>
      <point x="366" y="493"/>
      <point x="413" y="510"/>
    </contour>
  </outline>
</glyph>
<glyph name="uni0416" format="1">
  <advance width="680" height="962"/>
  <unicode hex="0416"/>
  <outline>
    <contour>
      <point x="595" y="0" type="line"/>
      <point x="461" y="322" type="line"/>
      <point x="436" y="322" type="line"/>
      <point x="368" y="0" type="line"/>
      <point x="311" y="0" type="line"/>
      <point x="379" y="322" type="line"/>
      <point x="363" y="322" type="line"/>
      <point x="92" y="0" type="line"/>
      <point x="23" y="0" type="line"/>
      <point x="319" y="351" type="line"/>
      <point x="190" y="700" type="line"/>
      <point x="250" y="700" type="line"/>
      <point x="370" y="377" type="line"/>
      <point x="391" y="377" type="line"/>
      <point x="460" y="700" type="line"/>
      <point x="517" y="700" type="line"/>
      <point x="448" y="377" type="line"/>
      <point x="466" y="377" type="line"/>
      <point x="727" y="700" type="line"/>
      <point x="789" y="700" type="line"/>
      <point x="512" y="351" type="line"/>
      <point x="656" y="0" type="line"/>
    </contour>
  </outline>
</glyph>
<glyph name="uni0418" format="1">
  <advance width="577" height="962"/>
  <unicode hex="0418"/>
  <outline>
    <contour>
      <point x="190" y="700" type="line"/>
      <point x="246" y="700" type="line"/>
      <point x="119" y="103" type="line"/>
      <point x="626" y="700" type="line"/>
      <point x="683" y="700" type="line"/>
      <point x="534" y="0" type="line"/>
      <point x="477" y="0" type="line"/>
      <point x="604" y="597" type="line"/>
      <point x="97" y="0" type="line"/>
      <point x="41" y="0" type="line"/>
    </contour>
  </outline>
</glyph>
<glyph name="uni041B" format="1">
  <advance width="535" height="962"/>
  <unicode hex="041B"/>
  <outline>
    <contour>
      <point x="550" y="700" type="curve" smooth="yes"/>
      <point x="652" y="700" type="line"/>
      <point x="503" y="0" type="line"/>
      <point x="446" y="0" type="line"/>
      <point x="584" y="647" type="line"/>
      <point x="545" y="647" type="line" smooth="yes"/>
      <point x="492" y="647"/>
      <point x="456" y="621"/>
      <point x="434" y="578" type="curve" smooth="yes"/>
      <point x="193" y="112" type="line" smooth="yes"/>
      <point x="156" y="40"/>
      <point x="127" y="4"/>
      <point x="64" y="-11" type="curve"/>
      <point x="33" y="20" type="line"/>
      <point x="95" y="38"/>
      <point x="132" y="102"/>
      <point x="143" y="124" type="curve" smooth="yes"/>
      <point x="365" y="557" type="line" smooth="yes"/>
      <point x="388" y="600"/>
      <point x="430" y="700"/>
    </contour>
  </outline>
</glyph>
<glyph name="uni041D" format="2">
  <advance width="515"/>
  <unicode hex="041D"/>
  <outline>
    <contour>
      <point x="503" y="412" type="line"/>
      <point x="564" y="700" type="line"/>
      <point x="620" y="700" type="line"/>
      <point x="472" y="0" type="line"/>
      <point x="415" y="0" type="line"/>
      <point x="491" y="357" type="line"/>
      <point x="173" y="357" type="line"/>
      <point x="98" y="0" type="line"/>
      <point x="41" y="0" type="line"/>
      <point x="190" y="700" type="line"/>
      <point x="246" y="700" type="line"/>
      <point x="185" y="412" type="line"/>
    </contour>
  </outline>
</glyph>
<glyph name="uni0427" format="1">
  <advance width="489" height="962"/>
  <unicode hex="0427"/>
  <outline>
    <contour>
      <point x="616" y="700" type="line"/>
      <point x="467" y="0" type="line"/>
      <point x="410" y="0" type="line"/>
      <point x="475" y="306" type="line"/>
      <point x="428" y="264"/>
      <point x="346" y="245"/>
      <point x="283" y="245" type="curve" smooth="yes"/>
      <point x="149" y="245"/>
      <point x="93" y="327"/>
      <point x="120" y="455" type="curve" smooth="yes"/>
      <point x="172" y="700" type="line"/>
      <point x="228" y="700" type="line"/>
      <point x="175" y="453" type="line" smooth="yes"/>
      <point x="154" y="351"/>
      <point x="204" y="300"/>
      <point x="307" y="300" type="curve" smooth="yes"/>
      <point x="385" y="300"/>
      <point x="480" y="331"/>
      <point x="500" y="423" type="curve" smooth="yes"/>
      <point x="559" y="700" type="line"/>
    </contour>
  </outline>
</glyph>
<glyph name="uni0428" format="2">
  <advance width="641"/>
  <unicode hex="0428"/>
  <outline>
    <contour>
      <point x="691" y="700" type="line"/>
      <point x="749" y="700" type="line"/>
      <point x="600" y="0" type="line"/>
      <point x="44" y="0" type="line"/>
      <point x="193" y="700" type="line"/>
      <point x="251" y="700" type="line"/>
      <point x="114" y="57" type="line"/>
      <point x="305" y="57" type="line"/>
      <point x="442" y="700" type="line"/>
      <point x="500" y="700" type="line"/>
      <point x="363" y="57" type="line"/>
      <point x="554" y="57" type="line"/>
    </contour>
  </outline>
</glyph>
<glyph name="uni0429" format="2">
  <advance width="681" height="962"/>
  <unicode hex="0429"/>
  <outline>
    <component base="uni0428"/>
    <contour>
      <point x="582" y="57" type="line"/>
      <point x="667" y="57" type="line"/>
      <point x="633" y="-105" type="line"/>
      <point x="587" y="-105" type="line"/>
      <point x="600" y="0" type="line"/>
      <point x="570" y="0" type="line"/>
    </contour>
  </outline>
</glyph>
<glyph name="uni0436" format="1">
  <advance width="533" height="962"/>
  <unicode hex="0436"/>
  <outline>
    <contour>
      <point x="622" y="500" type="line"/>
      <point x="416" y="250" type="line"/>
      <point x="514" y="0" type="line"/>
      <point x="450" y="0" type="line"/>
      <point x="365" y="223" type="line"/>
      <point x="343" y="223" type="line"/>
      <point x="295" y="0" type="line"/>
      <point x="238" y="0" type="line"/>
      <point x="286" y="223" type="line"/>
      <point x="271" y="223" type="line"/>
      <point x="84" y="0" type="line"/>
      <point x="17" y="0" type="line"/>
      <point x="230" y="250" type="line"/>
      <point x="130" y="500" type="line"/>
      <point x="192" y="500" type="line"/>
      <point x="277" y="278" type="line"/>
      <point x="297" y="278" type="line"/>
      <point x="344" y="500" type="line"/>
      <point x="401" y="500" type="line"/>
      <point x="354" y="278" type="line"/>
      <point x="374" y="278" type="line"/>
      <point x="559" y="500" type="line"/>
    </contour>
  </outline>
</glyph>
<glyph name="uni0446" format="1">
  <advance width="480" height="962"/>
  <unicode hex="0446"/>
  <outline>
    <contour>
      <point x="391" y="57" type="line"/>
      <point x="475" y="57" type="line"/>
      <point x="441" y="-105" type="line"/>
      <point x="395" y="-105" type="line"/>
      <point x="407" y="0" type="line"/>
      <point x="379" y="0" type="line"/>
    </contour>
    <contour>
      <point x="513" y="500" type="line"/>
      <point x="407" y="0" type="line"/>
      <point x="37" y="0" type="line"/>
      <point x="143" y="500" type="line"/>
      <point x="200" y="500" type="line"/>
      <point x="106" y="57" type="line"/>
      <point x="362" y="57" type="line"/>
      <point x="456" y="500" type="line"/>
    </contour>
  </outline>
</glyph>
<glyph name="uni0448" format="1">
  <advance width="615" height="962"/>
  <unicode hex="0448"/>
  <outline>
    <contour>
      <point x="619" y="500" type="line"/>
      <point x="676" y="500" type="line"/>
      <point x="570" y="0" type="line"/>
      <point x="44" y="0" type="line"/>
      <point x="150" y="500" type="line"/>
      <point x="208" y="500" type="line"/>
      <point x="114" y="57" type="line"/>
      <point x="290" y="57" type="line"/>
      <point x="384" y="500" type="line"/>
      <point x="442" y="500" type="line"/>
      <point x="348" y="57" type="line"/>
      <point x="525" y="57" type="line"/>
    </contour>
  </outline>
</glyph>
<glyph name="uni044A" format="2">
  <advance width="525"/>
  <unicode hex="044A"/>
  <outline>
    <component base="uni044C" xOffset="68"/>
    <contour>
      <point x="106" y="500" type="line"/>
      <point x="243" y="500" type="line"/>
      <point x="232" y="449" type="line"/>
      <point x="203" y="449" type="line"/>
      <point x="96" y="451" type="line"/>
    </contour>
  </outline>
</glyph>
<glyph name="uni0452" format="2">
  <advance width="468" height="962"/>
  <unicode hex="0452"/>
  <outline>
    <contour>
      <point x="131" y="618" type="line"/>
      <point x="367" y="618" type="line"/>
      <point x="356" y="565" type="line"/>
      <point x="120" y="565" type="line"/>
    </contour>
    <contour>
      <point x="373" y="510" type="curve" smooth="yes"/>
      <point x="484" y="510"/>
      <point x="531" y="452"/>
      <point x="509" y="346" type="curve" smooth="yes"/>
      <point x="422" y="-63" type="line" smooth="yes"/>
      <point x="404" y="-145"/>
      <point x="365" y="-185"/>
      <point x="283" y="-210" type="curve"/>
      <point x="277" y="-167" type="line"/>
      <point x="327" y="-150"/>
      <point x="356" y="-110"/>
      <point x="366" y="-62" type="curve" smooth="yes"/>
      <point x="452" y="343" type="line" smooth="yes"/>
      <point x="471" y="434"/>
      <point x="416" y="460"/>
      <point x="352" y="460" type="curve" smooth="yes"/>
      <point x="306" y="460"/>
      <point x="256" y="448"/>
      <point x="210" y="425" type="curve"/>
      <point x="120" y="0" type="line"/>
      <point x="63" y="0" type="line"/>
      <point x="212" y="700" type="line"/>
      <point x="269" y="700" type="line"/>
      <point x="219" y="467" type="line"/>
      <point x="263" y="493"/>
      <point x="323" y="510"/>
    </contour>
  </outline>
</glyph>
<glyph name="uni0462" format="1">
  <advance width="479" height="962"/>
  <unicode hex="0462"/>
  <outline>
    <component base="uni042C" xOffset="24"/>
    <contour>
      <point x="132" y="617" type="line"/>
      <point x="368" y="617" type="line"/>
      <point x="357" y="564" type="line"/>
      <point x="121" y="564" type="line"/>
    </contour>
  </outline>
</glyph>
<glyph name="uni046A" format="2">
  <advance width="602"/>
  <unicode hex="046A"/>
  <outline>
    <contour>
      <point x="452" y="376" type="line" smooth="yes"/>
      <point x="578" y="376"/>
      <point x="628" y="305"/>
      <point x="602" y="184" type="curve" smooth="yes"/>
      <point x="563" y="0" type="line"/>
      <point x="507" y="0" type="line"/>
      <point x="548" y="194" type="line" smooth="yes"/>
      <point x="567" y="282"/>
      <point x="521" y="325"/>
      <point x="441" y="325" type="curve" smooth="yes"/>
      <point x="395" y="325" type="line"/>
      <point x="326" y="0" type="line"/>
      <point x="269" y="0" type="line"/>
      <point x="338" y="325" type="line"/>
      <point x="296" y="325" type="line" smooth="yes"/>
      <point x="216" y="325"/>
      <point x="152" y="282"/>
      <point x="133" y="194" type="curve" smooth="yes"/>
      <point x="92" y="0" type="line"/>
      <point x="36" y="0" type="line"/>
      <point x="75" y="184" type="line" smooth="yes"/>
      <point x="101" y="305"/>
      <point x="181" y="376"/>
      <point x="307" y="376" type="curve" smooth="yes"/>
      <point x="332" y="376" type="line"/>
      <point x="211" y="700" type="line"/>
      <point x="684" y="700" type="line"/>
      <point x="425" y="376" type="line"/>
    </contour>
    <contour>
      <point x="383" y="405" type="line"/>
      <point x="577" y="643" type="line"/>
      <point x="298" y="643" type="line"/>
    </contour>
  </outline>
  <guideline angle="0" x="0" y="748"/>
</glyph>
<glyph name="uni0474" format="1">
  <advance width="554" height="962"/>
  <unicode hex="0474"/>
  <outline>
    <contour>
      <point x="668" y="712" type="curve"/>
      <point x="699" y="677" type="line"/>
      <point x="630" y="656"/>
      <point x="610" y="617"/>
      <point x="596" y="587" type="curve" smooth="yes"/>
      <point x="302" y="-1" type="line"/>
      <point x="225" y="-1" type="line"/>
      <point x="173" y="700" type="line"/>
      <point x="233" y="700" type="line"/>
      <point x="277" y="68" type="line"/>
      <point x="531" y="576" type="line" smooth="yes"/>
      <point x="571" y="656"/>
      <point x="603" y="698"/>
    </contour>
  </outline>
</glyph>
<glyph name="uni0491" format="2">
  <advance width="319"/>
  <unicode hex="0491"/>
  <outline>
    <component base="uni0433"/>
    <contour>
      <point x="385" y="593" type="line"/>
      <point x="434" y="593" type="line"/>
      <point x="408" y="472" type="line"/>
      <point x="357" y="472" type="line"/>
      <point x="363" y="501" type="line"/>
    </contour>
  </outline>
</glyph>
<glyph name="uni049A" format="2">
  <advance width="459"/>
  <unicode hex="049A"/>
  <outline>
    <component base="K"/>
    <contour>
      <point x="386" y="57" type="line"/>
      <point x="454" y="57" type="line"/>
      <point x="420" y="-105" type="line"/>
      <point x="374" y="-105" type="line"/>
      <point x="386" y="0" type="line"/>
      <point x="374" y="0" type="line"/>
    </contour>
  </outline>
</glyph>
<glyph name="uni049D" format="1">
  <advance width="480" height="962"/>
  <unicode hex="049D"/>
  <outline>
    <contour>
      <point x="477" y="47" type="curve"/>
      <point x="467" y="-1" type="line"/>
      <point x="396" y="-1"/>
      <point x="363" y="58"/>
      <point x="337" y="111" type="curve" smooth="yes"/>
      <point x="259" y="263" type="line"/>
      <point x="235" y="263" type="line"/>
      <point x="220" y="191" type="line"/>
      <point x="162" y="191" type="line"/>
      <point x="177" y="263" type="line"/>
      <point x="151" y="263" type="line"/>
      <point x="95" y="0" type="line"/>
      <point x="38" y="0" type="line"/>
      <point x="147" y="511" type="line"/>
      <point x="201" y="498" type="line"/>
      <point x="163" y="318" type="line"/>
      <point x="189" y="318" type="line"/>
      <point x="204" y="390" type="line"/>
      <point x="262" y="390" type="line"/>
      <point x="247" y="318" type="line"/>
      <point x="262" y="318" type="line"/>
      <point x="467" y="500" type="line"/>
      <point x="541" y="500" type="line"/>
      <point x="310" y="296" type="line"/>
      <point x="399" y="118" type="line" smooth="yes"/>
      <point x="423" y="71"/>
      <point x="451" y="47"/>
    </contour>
  </outline>
</glyph>
<glyph name="uni04A3" format="2">
  <advance width="481"/>
  <unicode hex="04A3"/>
  <outline>
    <component base="uni043D"/>
    <contour>
      <point x="390" y="57" type="line"/>
      <point x="476" y="57" type="line"/>
      <point x="442" y="-105" type="line"/>
      <point x="396" y="-105" type="line"/>
      <point x="408" y="0" type="line"/>
      <point x="378" y="0" type="line"/>
    </contour>
  </outline>
</glyph>
<glyph name="uni04A4" format="1">
  <advance width="592" height="962"/>
  <unicode hex="04A4"/>
  <outline>
    <component base="H"/>
    <contour>
      <point x="592" y="700" type="line"/>
      <point x="728" y="700" type="line"/>
      <point x="717" y="651" type="line"/>
      <point x="602" y="648" type="line"/>
      <point x="581" y="648" type="line"/>
    </contour>
  </outline>
</glyph>
<glyph name="uni04AF" format="1">
  <advance width="424" height="962"/>
  <unicode hex="04AF"/>
  <outline>
    <contour>
      <point x="513" y="500" type="line"/>
      <point x="242" y="-2" type="line"/>
      <point x="197" y="-214" type="line"/>
      <point x="145" y="-190" type="line"/>
      <point x="185" y="0" type="line"/>
      <point x="128" y="500" type="line"/>
      <point x="186" y="500" type="line"/>
      <point x="233" y="86" type="line"/>
      <point x="454" y="500" type="line"/>
    </contour>
  </outline>
</glyph>
<glyph name="uni04CC" format="2">
  <advance width="441" height="962"/>
  <unicode hex="04CC"/>
  <outline>
    <contour>
      <point x="302" y="57" type="line"/>
      <point x="387" y="57" type="line"/>
      <point x="375" y="0" type="line"/>
      <point x="346" y="0" type="line"/>
      <point x="314" y="-105" type="line"/>
      <point x="268" y="-105" type="line"/>
    </contour>
    <contour>
      <point x="347" y="0" type="line"/>
      <point x="382" y="167" type="line"/>
      <point x="341" y="127"/>
      <point x="281" y="108"/>
      <point x="231" y="108" type="curve" smooth="yes"/>
      <point x="120" y="108"/>
      <point x="66" y="161"/>
      <point x="90" y="275" type="curve" smooth="yes"/>
      <point x="138" y="500" type="line"/>
      <point x="196" y="500" type="line"/>
      <point x="149" y="279" type="line" smooth="yes"/>
      <point x="130" y="186"/>
      <point x="192" y="161"/>
      <point x="254" y="161" type="curve" smooth="yes"/>
      <point x="325" y="161"/>
      <point x="394" y="221"/>
      <point x="409" y="291" type="curve" smooth="yes"/>
      <point x="434" y="409" type="line" smooth="yes"/>
      <point x="444" y="455"/>
      <point x="474" y="496"/>
      <point x="525" y="512" type="curve"/>
      <point x="536" y="470" type="line"/>
      <point x="516" y="462"/>
      <point x="499" y="450"/>
      <point x="490" y="408" type="curve" smooth="yes"/>
      <point x="403" y="0" type="line"/>
    </contour>
  </outline>
</glyph>
<glyph name="uni04F6" format="2">
  <advance width="383"/>
  <unicode hex="04F6"/>
  <outline>
    <component base="Gamma"/>
    <contour>
      <point x="83" y="57" type="line"/>
      <point x="166" y="57" type="line"/>
      <point x="132" y="-105" type="line"/>
      <point x="86" y="-105" type="line"/>
      <point x="98" y="0" type="line"/>
      <point x="71" y="0" type="line"/>
    </contour>
  </outline>
</glyph>
<glyph name="uni2014" format="2">
  <advance width="700"/>
  <unicode hex="2014"/>
  <outline>
    <contour>
      <point x="180" y="355.994" type="line"/>
      <point x="192.366" y="414.156" type="line"/>
      <point x="692.259" y="414.156" type="line"/>
      <point x="679.893" y="355.994" type="line"/>
    </contour>
  </outline>
</glyph>
<glyph name="quotesinglbase" format="2">
  <advance width="140"/>
  <unicode hex="201A"/>
  <outline>
    <contour>
      <point x="20" y="-65" type="line"/>
      <point x="46" y="-39"/>
      <point x="61" y="-12"/>
      <point x="66" y="10" type="curve"/>
      <point x="52" y="13"/>
      <point x="43" y="26"/>
      <point x="46" y="43" type="curve" smooth="yes"/>
      <point x="50" y="62"/>
      <point x="69" y="76"/>
      <point x="86" y="76" type="curve" smooth="yes"/>
      <point x="106" y="76"/>
      <point x="117" y="63"/>
      <point x="114" y="43" type="curve"/>
      <point x="101" y="-20"/>
      <point x="58" y="-60"/>
      <point x="35" y="-77" type="curve"/>
    </contour>
  </outline>
</glyph>
<glyph name="quotedblbase" format="1">
  <advance width="319" height="962"/>
  <unicode hex="201E"/>
  <outline>
    <contour>
      <point x="20" y="-65" type="line"/>
      <point x="46" y="-39"/>
      <point x="61" y="-12"/>
      <point x="66" y="10" type="curve"/>
      <point x="52" y="13"/>
      <point x="43" y="26"/>
      <point x="46" y="43" type="curve" smooth="yes"/>
      <point x="50" y="62"/>
      <point x="68" y="76"/>
      <point x="86" y="76" type="curve" smooth="yes"/>
      <point x="106" y="76"/>
      <point x="117" y="63"/>
      <point x="114" y="43" type="curve"/>
      <point x="101" y="-20"/>
      <point x="58" y="-60"/>
      <point x="35" y="-77" type="curve"/>
    </contour>
    <contour>
      <point x="200" y="-65" type="line"/>
      <point x="227" y="-39"/>
      <point x="241" y="-12"/>
      <point x="247" y="10" type="curve"/>
      <point x="231" y="13"/>
      <point x="222" y="26"/>
      <point x="226" y="43" type="curve" smooth="yes"/>
      <point x="230" y="62"/>
      <point x="249" y="76"/>
      <point x="266" y="76" type="curve" smooth="yes"/>
      <point x="285" y="76"/>
      <point x="298" y="63"/>
      <point x="293" y="43" type="curve" smooth="yes"/>
      <point x="280" y="-21"/>
      <point x="238" y="-59"/>
      <point x="215" y="-77" type="curve"/>
    </contour>
  </outline>
</glyph>
<glyph name="guilsinglleft" format="2">
  <advance width="284" height="962"/>
  <unicode hex="2039"/>
  <outline>
    <contour>
      <point x="84.7526" y="267" type="line"/>
      <point x="311.713" y="455" type="line"/>
      <point x="343.636" y="419" type="line"/>
      <point x="155.753" y="263" type="line"/>
      <point x="270.231" y="110" type="line"/>
      <point x="228.792" y="82" type="line"/>
    </contour>
  </outline>
</glyph>
<glyph name="guilsinglright" format="2">
  <advance width="284" height="962"/>
  <unicode hex="203A"/>
  <outline>
    <contour>
      <point x="244" y="274" type="line"/>
      <point x="127" y="424" type="line"/>
      <point x="164" y="455" type="line"/>
      <point x="312" y="267" type="line"/>
      <point x="84" y="79" type="line"/>
      <point x="57" y="114" type="line"/>
    </contour>
  </outline>
</glyph>
<glyph name="fraction" format="2">
  <advance width="416" height="962"/>
  <unicode hex="2044"/>
  <outline>
    <contour>
      <point x="-9" y="-114" type="line"/>
      <point x="509" y="818" type="line"/>
      <point x="577" y="818" type="line"/>
      <point x="54" y="-114" type="line"/>
    </contour>
  </outline>
</glyph>
<glyph name="uni20AE" format="1">
  <advance width="417" height="962"/>
  <unicode hex="20AE"/>
  <outline>
    <component base="T" xOffset="-4"/>
    <contour>
      <point x="423" y="416" type="line"/>
      <point x="436" y="366" type="line"/>
      <point x="116" y="235" type="line"/>
      <point x="104" y="284" type="line"/>
    </contour>
    <contour>
      <point x="446" y="525" type="line"/>
      <point x="458" y="475" type="line"/>
      <point x="138" y="344" type="line"/>
      <point x="127" y="393" type="line"/>
    </contour>
  </outline>
</glyph>
<glyph name="Y_upper_alt" format="2">
  <advance width="487"/>
  <unicode hex="9997"/>
  <outline>
    <contour>
      <point x="343" y="342" type="line"/>
      <point x="270" y="0" type="line"/>
      <point x="214" y="0" type="line"/>
      <point x="286" y="340" type="line"/>
      <point x="155" y="700" type="line"/>
      <point x="218" y="700" type="line"/>
      <point x="327" y="406" type="line"/>
      <point x="563" y="700" type="line"/>
      <point x="628" y="700" type="line"/>
    </contour>
  </outline>
</glyph>
<glyph name="fi" format="2">
  <advance width="365"/>
  <unicode hex="FB01"/>
  <outline>
    <contour>
      <point x="457" y="614" type="line"/>
      <point x="427" y="637"/>
      <point x="387" y="654"/>
      <point x="329" y="654" type="curve" smooth="yes"/>
      <point x="264" y="654"/>
      <point x="228" y="619"/>
      <point x="216" y="564" type="curve" smooth="yes"/>
      <point x="202" y="500" type="line"/>
      <point x="316" y="500" type="line"/>
      <point x="282" y="447" type="line"/>
      <point x="191" y="447" type="line"/>
      <point x="96" y="0" type="line"/>
      <point x="39" y="0" type="line"/>
      <point x="159" y="567" type="line" smooth="yes"/>
      <point x="178" y="657"/>
      <point x="244" y="711"/>
      <point x="336" y="709" type="curve" smooth="yes"/>
      <point x="392" y="708"/>
      <point x="440" y="690"/>
      <point x="468" y="667" type="curve"/>
    </contour>
    <contour>
      <point x="326" y="0" type="line"/>
      <point x="269" y="0" type="line"/>
      <point x="375" y="500" type="line"/>
      <point x="432" y="500" type="line"/>
    </contour>
  </outline>
</glyph>
<glyph name="fl" format="1">
  <advance width="370" height="962"/>
  <unicode hex="FB02"/>
  <outline>
    <contour>
      <point x="403" y="623" type="line"/>
      <point x="374" y="642"/>
      <point x="349" y="648"/>
      <point x="328" y="648" type="curve" smooth="yes"/>
      <point x="280" y="648"/>
      <point x="229" y="620"/>
      <point x="214" y="550" type="curve" smooth="yes"/>
      <point x="204" y="500" type="line"/>
      <point x="319" y="500" type="line"/>
      <point x="284" y="447" type="line"/>
      <point x="193" y="447" type="line"/>
      <point x="98" y="0" type="line"/>
      <point x="41" y="0" type="line"/>
      <point x="161" y="562" type="line" smooth="yes"/>
      <point x="180" y="649"/>
      <point x="259" y="707"/>
      <point x="343" y="707" type="curve" smooth="yes"/>
      <point x="387" y="707"/>
      <point x="432" y="693"/>
      <point x="468" y="658" type="curve"/>
      <point x="328" y="0" type="line"/>
      <point x="271" y="0" type="line"/>
    </contour>
  </outline>
</glyph>
<glyph name="gamma_gamma" format="1">
  <advance width="869" height="962"/>
  <outline>
    <component base="gamma" xOffset="359.5"/>
    <contour>
      <point x="542" y="500" type="line"/>
      <point x="252" y="-58" type="line" smooth="yes"/>
      <point x="229" y="-102"/>
      <point x="194" y="-196"/>
      <point x="73" y="-199" type="curve"/>
      <point x="72" y="-156" type="line"/>
      <point x="128" y="-154"/>
      <point x="162" y="-123"/>
      <point x="185" y="-79" type="curve" smooth="yes"/>
      <point x="222" y="-6" type="line"/>
      <point x="170" y="17"/>
      <point x="161" y="70"/>
      <point x="156" y="129" type="curve" smooth="yes"/>
      <point x="127" y="500" type="line"/>
      <point x="184" y="500" type="line"/>
      <point x="213" y="140" type="line" smooth="yes"/>
      <point x="219" y="75"/>
      <point x="229" y="55"/>
      <point x="249" y="43" type="curve"/>
      <point x="485" y="500" type="line"/>
    </contour>
  </outline>
</glyph>
<glyph name="t_t" format="2">
  <advance width="482" height="962"/>
  <outline>
    <component base="t" xOffset="151"/>
    <contour>
      <point x="125" y="132" type="line" smooth="yes"/>
      <point x="114" y="79"/>
      <point x="128" y="45"/>
      <point x="169" y="30" type="curve"/>
      <point x="143" y="-13" type="line"/>
      <point x="75" y="9"/>
      <point x="52" y="54"/>
      <point x="69" y="132" type="curve" smooth="yes"/>
      <point x="189" y="700" type="line"/>
      <point x="246" y="700" type="line"/>
      <point x="203" y="500" type="line"/>
      <point x="311" y="500" type="line"/>
      <point x="298" y="448" type="line"/>
      <point x="192" y="448" type="line"/>
    </contour>
  </outline>
</glyph>
